PathFileType	4	(X/Y/Z)	C:/Users/opensim2020/Desktop/walking_exp_matlab/subject06_walking20_straight_03.trc	
DataRate	CameraRate	NumFrames	NumMarkers	Units	OrigDataRate	OrigDataStartFrame	OrigNumFrames	
100.00	100.00	4	43	mm	100.00	1780	132	
Frame#	Time	LFHD			RFHD			LBHD			RBHD			C7			T10			CLAV			STRN			RBAK			LSHO			LUPA			LELB			LFRM			LWRA			LWRB			LFIN			RSHO			RUPA			RELB			RFRM			RWRA			RWRB			RFIN			LASI			RASI			LPSI			RPSI			LTHI			LKNE			LTIB			LANK			LHEE			LTOE			RTHI			RKNE			RTIB			RANK			RHEE			RTOE			*39			*40			*41			*42			
		X1	Y1	Z1	X2	Y2	Z2	X3	Y3	Z3	X4	Y4	Z4	X5	Y5	Z5	X6	Y6	Z6	X7	Y7	Z7	X8	Y8	Z8	X9	Y9	Z9	X10	Y10	Z10	X11	Y11	Z11	X12	Y12	Z12	X13	Y13	Z13	X14	Y14	Z14	X15	Y15	Z15	X16	Y16	Z16	X17	Y17	Z17	X18	Y18	Z18	X19	Y19	Z19	X20	Y20	Z20	X21	Y21	Z21	X22	Y22	Z22	X23	Y23	Z23	X24	Y24	Z24	X25	Y25	Z25	X26	Y26	Z26	X27	Y27	Z27	X28	Y28	Z28	X29	Y29	Z29	X30	Y30	Z30	X31	Y31	Z31	X32	Y32	Z32	X33	Y33	Z33	X34	Y34	Z34	X35	Y35	Z35	X36	Y36	Z36	X37	Y37	Z37	X38	Y38	Z38	X39	Y39	Z39	X40	Y40	Z40	X41	Y41	Z41	X42	Y42	Z42	X43	Y43	Z43	

100	0.990	-1047.85095	412.23898	1655.63623	-919.19440	391.71652	1634.81213	-1074.12573	281.07043	1604.60266	-947.34137	261.59711	1588.39551	-1024.12207	270.81262	1441.57019	-1016.77704	232.01224	1113.71619	-1013.87073	379.21222	1362.30737	-1021.88849	416.62277	1187.05859	-955.43610	188.89734	1272.09607	-1178.91919	336.62234	1398.77319	-1262.75928	351.27341	1202.36389	-1284.08447	360.23730	1090.71606	-1304.95630	434.02008	959.56561	-1255.15857	528.54456	875.42780	-1298.23364	478.88199	849.09241	-1295.09180	547.60510	791.06116	-856.76831	319.27832	1392.43872	-778.92999	238.42862	1205.44495	-768.14465	221.81163	1083.95105	-750.52881	210.13210	964.05670	-775.24994	243.23192	814.76953	-742.61536	185.81367	827.96808	-739.07819	203.38501	745.01868	-1127.79626	404.79883	953.10651	-908.32581	407.36273	956.60181	-1095.44946	249.01440	982.79193	-927.55652	257.35541	978.45007	-1176.97302	312.51428	641.38434	-1149.53711	285.50909	478.86984	-1137.88208	201.44400	233.40242	-1085.91321	162.58730	67.36324	-1044.14563	115.06577	58.54931	-1071.72278	302.44769	34.06693	-846.04968	450.22461	640.55066	-870.67822	504.04694	527.86768	-876.62726	468.87244	265.35358	-922.18457	452.58826	80.85372	-971.04498	416.19528	55.98169	-909.69098	599.26227	47.24753	-1003.02313	304.29279	1691.55347									 
101	1.000	-1046.59924	427.17795	1653.31030	-918.04498	406.22437	1632.10547	-1073.44080	296.05725	1602.10303	-946.77045	276.10281	1585.55566	-1023.80719	285.68924	1438.92053	-1016.08734	246.72688	1111.07703	-1013.50446	394.19144	1359.64636	-1021.92566	431.50378	1184.39551	-955.69305	203.64299	1269.23376	-1178.55737	351.69904	1396.53027	-1262.64502	368.20663	1200.32593	-1284.34070	379.25723	1089.13611	-1304.02771	457.90970	961.00446	-1253.04883	555.73108	881.72351	-1296.01782	507.57712	852.58673	-1292.28931	579.19934	798.31360	-856.31421	333.72562	1389.43188	-779.27661	251.50615	1202.77966	-768.44690	233.98076	1081.41370	-750.72925	220.38081	961.67474	-774.87335	250.98451	811.74750	-742.65363	193.46208	826.15784	-738.67065	209.55457	742.90808	-1127.95190	418.61682	950.32715	-908.46130	422.57501	953.75647	-1094.60022	263.12363	980.20294	-926.74274	272.45648	975.59900	-1176.95801	322.85040	639.48730	-1149.51343	293.20563	477.36533	-1137.81360	204.64281	233.33237	-1085.49670	163.24483	67.85858	-1043.56042	115.66483	59.52990	-1071.75452	302.64880	33.84699	-845.70868	464.11667	637.00427	-870.86047	518.28644	524.59540	-877.29340	496.49573	260.86676	-922.87213	494.22830	75.49865	-972.56445	460.22519	48.98951	-909.06439	642.81781	49.75338	-1002.06635	318.90613	1688.78564									 
102	1.010	-1045.23230	442.05804	1650.63904	-916.85114	420.59320	1629.10461	-1072.74292	311.15109	1599.46179	-946.18781	290.78781	1582.60242	-1023.66449	299.75824	1436.55432	-1015.46057	261.62415	1108.22791	-1012.98969	409.20978	1356.88513	-1021.85309	446.44183	1181.60754	-955.94098	218.73834	1265.96570	-1178.09265	366.89185	1394.19470	-1262.47668	385.25873	1198.36963	-1284.35547	398.11197	1087.40686	-1302.76160	481.31055	962.49408	-1250.74377	582.11285	888.15656	-1293.80273	535.87170	856.56268	-1289.42065	609.97961	806.02203	-855.89948	348.13507	1386.37915	-779.53375	264.67050	1200.06274	-768.65149	246.47777	1078.79980	-750.79382	230.96227	959.31604	-774.38470	259.10117	808.81927	-742.60522	201.68466	824.28821	-738.12476	216.27658	740.82013	-1128.24280	432.72406	947.44946	-908.55420	438.04193	950.77917	-1093.72095	277.14191	977.54517	-925.87372	287.63126	972.53345	-1176.50989	333.57721	637.68677	-1149.37280	301.34109	475.77298	-1137.64514	208.30090	233.23718	-1085.04663	163.97343	68.44812	-1042.91968	116.36543	60.75826	-1071.68555	303.10901	33.72691	-845.55908	476.88989	632.72998	-871.34985	531.87024	520.59967	-878.01025	523.21185	256.78339	-923.43066	534.80804	71.59035	-973.35187	502.95035	44.93037	-907.92902	684.76276	52.85840	-1001.05042	333.63919	1686.01624									 
103	1.020	-1043.90076	457.19006	1648.06067	-915.70496	434.99548	1626.02319	-1072.01038	326.36072	1596.75696	-945.60706	305.47437	1579.55896	-1023.30762	314.76468	1433.81006	-1014.73096	276.52728	1105.29895	-1012.44031	424.35620	1354.05151	-1021.70856	461.47150	1178.76538	-955.97192	233.61929	1262.84485	-1177.49487	382.19431	1391.73218	-1262.40027	402.16287	1196.42688	-1284.38123	416.69110	1085.84937	-1301.54907	504.25870	964.00500	-1248.19153	607.77740	894.66345	-1291.20972	563.09009	860.41187	-1286.54797	639.88757	813.99390	-855.43677	362.72031	1383.25476	-779.70679	278.00186	1197.33325	-768.68170	259.11279	1076.21448	-750.78796	241.91592	956.94403	-773.65302	267.88956	805.90894	-742.40356	210.43388	822.46863	-737.47742	223.59584	738.80176	-1128.30566	446.90887	944.55902	-908.50739	453.45813	947.53815	-1092.83142	290.83087	974.72467	-924.83002	302.91571	969.35181	-1176.43103	344.40222	635.79333	-1149.44812	309.96054	474.21970	-1137.37720	212.33357	233.22369	-1084.28333	164.73921	69.21737	-1041.88000	117.23158	62.22771	-1071.70776	303.44650	33.48681	-845.40991	488.86383	627.78101	-871.94305	544.90253	516.13623	-878.95703	549.20105	253.09149	-923.77472	573.91986	69.22228	-973.83014	543.15656	42.96965	-906.84357	724.84167	55.52339	-999.99976	348.45413	1683.13818									 
